<?xml version="1.0" encoding="utf-8"?>
<!-- Generator: Adobe Illustrator 22.0.0, SVG Export Plug-In . SVG Version: 6.00 Build 0)  -->
<svg version="1.1" id="Layer_1" xmlns="http://www.w3.org/2000/svg" xmlns:xlink="http://www.w3.org/1999/xlink" x="0px" y="0px" viewBox="0 0 356 417.1" style="enable-background:new 0 0 356 417.1;" xml:space="preserve">
  <style type="text/css">
	.st0{clip-path:url(#SVGID_2_);fill:#BE1E1A;}
	.st1{clip-path:url(#SVGID_4_);fill:url(#SVGID_5_);}
	.st2{clip-path:url(#SVGID_7_);fill:url(#SVGID_8_);}
	.st3{clip-path:url(#SVGID_10_);fill:url(#SVGID_11_);}
</style>
  <g>
    <g>
      <defs>
        <rect id="SVGID_1_" x="-90.4" y="-86.8" width="1760" height="591" />
      </defs>
      <clipPath id="SVGID_2_">
        <use xlink:href="#SVGID_1_" style="overflow:visible;" />
      </clipPath>
      <path class="st0" d="M264.5,223c-0.3-0.4-0.5-0.8-0.7-1.2C263.9,222.2,264.1,222.6,264.5,223" />
    </g>
  </g>
  <g>
    <g>
      <defs>
        <path id="SVGID_3_" d="M51.4,53.5C-2,107.9-14.7,185.9,17.7,254.9c16.5,35.1,41,64.2,68.9,90.6c27.6,26.2,58.6,48,88.9,70.7
				c1.8,1.3,2.8,1.1,4.4-0.2c20.4-15.6,41.6-30.3,61.4-46.7c16.2-13.4,31.7-27.4,46-42.6c8.8-9.3,7.7-24.2-2.3-32.1
				c-6.2-4.9-12.9-10.3-18.4-14.8c-0.8-0.5-1.7-1.1-2.5-1.8c-7.9-6.5-15.9-13-23.7-19.5c-1.5-1.3-2.8-2.3-3.7-3.1
				c-2.2-1.9-3.6-1.9-6-0.3c-61.3,39.3-141.2,2.5-150.7-69.6c-0.5-4.2-0.6-8.4-0.9-12.6c0.1-50,40.2-93.5,89.9-96.8
				c38-2.5,68.6,12,89.7,43.5c3.8,5.6,6.9,11.3,9.5,17.1c0,0,0,0.1-0.1,0.1c5.1,11.6,7.6,23.4,7.7,35.4l0,0c0,1.1,0,2.3-0.1,3.4
				c0,0.3,0,0.6,0,0.9c0,0.8-0.1,1.5-0.1,2.3c-0.5,6.2-1.6,12.5-3.3,18.7c32-91.5,4.8-164.4-51.7-190.7C204,2.4,186.3,0,167.8,0
				C128.4,1,85.9,18.4,51.4,53.5" />
      </defs>
      <clipPath id="SVGID_4_">
        <use xlink:href="#SVGID_3_" style="overflow:visible;" />
      </clipPath>

      <linearGradient id="SVGID_5_" gradientUnits="userSpaceOnUse" x1="-169.5671" y1="159.103" x2="-168.5671" y2="159.103" gradientTransform="matrix(240.0188 -116.7659 116.7659 240.0188 22199.2461 -57745.8398)">
        <stop offset="0" style="stop-color:#BE1E1A" />
        <stop offset="0.1145" style="stop-color:#BE1E1A" />
        <stop offset="0.5391" style="stop-color:#761A3B" />
        <stop offset="1" style="stop-color:#1B1464" />
      </linearGradient>
      <polygon class="st1" points="-178.8,80.1 243.3,-125.2 468.5,337.7 46.4,543.1 		" />
    </g>
  </g>
  <g>
    <g>
      <defs>
        <path id="SVGID_6_" d="M272.4,197.7c-1.9,6.8-4.5,13.6-7.9,20.4c-0.5,1.1-0.8,2-0.8,2.8l0,0l0,0c-0.1,1.3,0.5,2.3,2.1,3.6
				c0.1,0.1,0.2,0.1,0.3,0.2c1.2,1,2.5,1.9,3.7,2.7c-1.7-1.4-3.1-2.5-4-3.2c-0.3-0.2-0.5-0.4-0.7-0.6s-0.4-0.4-0.6-0.6
				c-0.3-0.4-0.5-0.8-0.7-1.2c0.1,0.4,0.3,0.8,0.7,1.2c0.2,0.2,0.3,0.4,0.6,0.6c0.2,0.2,0.5,0.4,0.7,0.6c0.9,0.7,2.3,1.8,4,3.2
				c9.1,7.3,28.1,22.8,41.8,34c8.4,6.9,21.1,4,25.7-5.9c10.4-22.1,16.6-45.2,17.7-69.6c-0.2,2.5-0.5,4.9-1,7.2
				c-0.2,0.8-0.3,1.5-0.5,2.3c0.2-0.8,0.4-1.5,0.5-2.3c0.5-2.3,0.8-4.7,1-7.2c0.1-2.5,0.2-5,0.2-7.5c0-0.4,0-0.8,0-1.2
				c0-1.6,0-3.2-0.1-4.8c0-0.8-0.1-1.5-0.1-2.3s-0.1-1.5-0.1-2.3l0,0c-0.3-4.7-0.7-9.4-1.3-14.2c-9.7-70.4-61.5-127.5-133-146.5
				C277.2,33.3,304.3,106.2,272.4,197.7" />
      </defs>
      <clipPath id="SVGID_7_">
        <use xlink:href="#SVGID_6_" style="overflow:visible;" />
      </clipPath>

      <linearGradient id="SVGID_8_" gradientUnits="userSpaceOnUse" x1="-170.3785" y1="158.4765" x2="-169.3785" y2="158.4765" gradientTransform="matrix(0 -258.1597 258.1597 0 -40624.4414 -43719.6445)">
        <stop offset="0" style="stop-color:#E45154" />
        <stop offset="0.5587" style="stop-color:#BE1E1A" />
        <stop offset="0.9246" style="stop-color:#7D1D1D" />
        <stop offset="1" style="stop-color:#7D1D1D" />
      </linearGradient>
      <rect x="220.6" y="7.1" class="st2" width="134.5" height="261.3" />
    </g>
  </g>
  <g>
    <g>
      <defs>
        <path id="SVGID_9_" d="M153.8,121.7c-28.6,13-41.3,47.1-28.2,75.6c13.3,28.8,46.9,41.4,75.6,28.2c29.1-13.3,41.9-47.1,28.8-75.8
				c-9.6-21-30.3-33.3-52.1-33.3C169.8,116.5,161.6,118.2,153.8,121.7" />
      </defs>
      <clipPath id="SVGID_10_">
        <use xlink:href="#SVGID_9_" style="overflow:visible;" />
      </clipPath>

      <linearGradient id="SVGID_11_" gradientUnits="userSpaceOnUse" x1="-170.1414" y1="159.8681" x2="-169.1414" y2="159.8681" gradientTransform="matrix(106.675 -92.2595 92.2595 106.675 3532.7268 -32534.1289)">
        <stop offset="0" style="stop-color:#BE1E1A" />
        <stop offset="0.1145" style="stop-color:#BE1E1A" />
        <stop offset="0.5391" style="stop-color:#761A3B" />
        <stop offset="1" style="stop-color:#1B1464" />
      </linearGradient>
      <polygon class="st3" points="52,168.8 187.2,51.8 303.6,186.4 168.4,303.4 		" />
    </g>
  </g>
</svg>